<svg width="50" height="50" viewBox="0 0 50 50" fill="none" xmlns="http://www.w3.org/2000/svg">
<rect width="50" height="50" fill="#8E51FF"/>
<path fill-rule="evenodd" clip-rule="evenodd" d="M37.25 17.5C35.18 17.5 33.5 19.18 33.5 21.25C33.5 21.34 33.515 21.43 33.53 21.52L30.68 22.78C29.57 21.4 27.905 20.5 26 20.5C24.755 20.5 23.615 20.875 22.655 21.52L18.365 17.71C18.44 17.395 18.5 17.08 18.5 16.75C18.5 14.68 16.82 13 14.75 13C12.68 13 11 14.68 11 16.75C11 18.82 12.68 20.5 14.75 20.5C15.38 20.5 15.965 20.335 16.49 20.05L20.675 23.77C20.255 24.595 20 25.51 20 26.5C20 28.615 21.095 30.46 22.745 31.525L21.905 34.03C20 34.21 18.5 35.8 18.5 37.75C18.5 39.82 20.18 41.5 22.25 41.5C24.32 41.5 26 39.82 26 37.75C26 36.64 25.52 35.665 24.755 34.975L25.595 32.455C25.73 32.47 25.865 32.5 26 32.5C29.315 32.5 32 29.815 32 26.5C32 26.17 31.955 25.84 31.895 25.525L34.925 24.175C35.57 24.685 36.365 25 37.25 25C39.32 25 41 23.32 41 21.25C41 19.18 39.32 17.5 37.25 17.5Z" fill="white"/>
<circle cx="25" cy="25" r="14.5" stroke="white"/>
</svg>
